<svg
  xmlns="http://www.w3.org/2000/svg"
  viewBox="0 0 100 125"
  className="kettlebell"
>
  <path d="M77.976,48.984c3.521-4.616,5.697-10.31,5.697-16.552C83.673,17.305,71.367,5,56.243,5H44.004  C28.877,5,16.572,17.305,16.572,32.433c0,6.172,2.123,11.811,5.575,16.4c-3.719,5.424-5.912,11.976-5.912,19.051  c0,10.284,4.712,19.361,11.972,25.547c0.099,0.105,0.204,0.191,0.313,0.287c0.073,0.059,0.139,0.132,0.211,0.19h0.083  C29.665,94.555,30.687,95,31.851,95h36.299c1.167,0,2.189-0.445,3.04-1.092h0.072c0.073-0.056,0.132-0.121,0.198-0.178  c0.119-0.103,0.237-0.201,0.35-0.316c7.247-6.186,11.955-15.256,11.955-25.53C83.765,60.881,81.629,54.375,77.976,48.984z   M44.004,18.505h12.239c7.68,0,13.924,6.248,13.924,13.927c0,2.592-0.751,4.992-1.991,7.072c-5.256-3.373-11.471-5.384-18.177-5.384  c-6.627,0-12.767,1.982-17.983,5.282c-1.2-2.061-1.938-4.421-1.938-6.97C30.077,24.753,36.325,18.505,44.004,18.505z" />
</svg>
